<svg class="svg-icon" style="width: 1em; height: 1em;vertical-align: middle;fill: currentColor;overflow: hidden;" viewBox="0 0 1024 1024" version="1.1" xmlns="http://www.w3.org/2000/svg"><path d="M839.68 477.866667c-71.68 0-143.36-30.72-204.8-92.16-129.706667-129.706667-109.226667-290.133333-17.066667-382.293334 3.413333 0 10.24-3.413333 13.653334-3.413333 78.506667 0 174.08 47.786667 259.413333 133.12S1024 314.026667 1024 392.533333c0 3.413333-3.413333 10.24-3.413333 13.653334-47.786667 44.373333-112.64 71.68-180.906667 71.68 3.413333 0 0 0 0 0zM638.293333 34.133333c-75.093333 78.506667-92.16 215.04 20.48 327.68 54.613333 54.613333 116.053333 81.92 180.906667 81.92 54.613333 0 105.813333-20.48 146.773333-58.026666-3.413333-68.266667-47.786667-150.186667-122.88-228.693334S706.56 37.546667 638.293333 34.133333z" fill="" /><path d="M1006.933333 409.6c-61.44 0-174.08-64.853333-252.586666-139.946667C679.253333 191.146667 614.4 78.506667 614.4 17.066667c0-10.24 6.826667-17.066667 17.066667-17.066667s17.066667 6.826667 17.066666 17.066667c0 44.373333 54.613333 150.186667 133.12 225.28 78.506667 78.506667 180.906667 133.12 225.28 133.12 10.24 0 17.066667 6.826667 17.066667 17.066666s-6.826667 17.066667-17.066667 17.066667zM593.92 645.12c-30.72 0-78.506667-20.48-136.533333-78.506667-88.746667-88.746667-92.16-146.773333-64.853334-174.08 20.48-20.48 153.6-143.36 160.426667-150.186666 6.826667-6.826667 17.066667-6.826667 23.893333 0 6.826667 6.826667 6.826667 17.066667 0 23.893333 0 0-136.533333 126.293333-157.013333 146.773333-13.653333 13.653333 0 61.44 64.853333 126.293334 64.853333 64.853333 112.64 78.506667 126.293334 64.853333 20.48-20.48 160.426667-153.6 167.253333-160.426667 6.826667-6.826667 17.066667-6.826667 23.893333 0 6.826667 6.826667 6.826667 17.066667 0 23.893334 0 0-143.36 136.533333-163.84 157.013333-17.066667 17.066667-27.306667 20.48-44.373333 20.48z" fill="" /><path d="M570.026667 921.6c-95.573333 0-238.933333-133.12-286.72-180.906667-58.026667-58.026667-245.76-256-160.426667-341.333333 92.16-92.16 249.173333-47.786667 293.546667-6.826667 6.826667 6.826667 6.826667 17.066667 0 23.893334s-17.066667 6.826667-23.893334 0c-30.72-30.72-167.253333-71.68-242.346666 6.826666C102.4 467.626667 197.973333 607.573333 307.2 716.8c109.226667 109.226667 249.173333 204.8 293.546667 160.426667 44.373333-44.373333 44.373333-105.813333 40.96-136.533334-3.413333-47.786667-23.893333-92.16-37.546667-105.813333-6.826667-6.826667-6.826667-17.066667 0-23.893333s17.066667-6.826667 23.893333 0c23.893333 23.893333 44.373333 75.093333 47.786667 126.293333 6.826667 68.266667-13.653333 126.293333-51.2 163.84-13.653333 13.653333-30.72 20.48-54.613333 20.48z" fill="" /><path d="M17.066667 1024c-3.413333 0-10.24-3.413333-13.653334-3.413333-3.413333-6.826667-3.413333-17.066667 0-23.893334L238.933333 672.426667c6.826667-6.826667 17.066667-10.24 23.893334-3.413334 10.24 6.826667 10.24 17.066667 3.413333 23.893334l-170.666667 232.106666 232.106667-170.666666c6.826667-6.826667 17.066667-3.413333 23.893333 3.413333 6.826667 6.826667 3.413333 17.066667-3.413333 23.893333L23.893333 1017.173333c0 6.826667-3.413333 6.826667-6.826666 6.826667z" fill="" /></svg>