<svg class="svg-icon" style="width: 1em; height: 1em;vertical-align: middle;fill: currentColor;overflow: hidden;" viewBox="0 0 1024 1024" version="1.1" xmlns="http://www.w3.org/2000/svg"><path d="M890.88 133.12C805.546667 47.786667 709.973333 0 631.466667 0c-3.413333 0-10.24 3.413333-13.653334 3.413333-92.16 92.16-112.64 252.586667 17.066667 382.293334 61.44 61.44 129.706667 92.16 204.8 92.16 64.853333 0 133.12-27.306667 177.493333-75.093334 3.413333-3.413333 3.413333-6.826667 3.413334-13.653333 3.413333-75.093333-44.373333-170.666667-129.706667-256z m64.853333 225.28c-44.373333 0-129.706667-47.786667-184.32-105.813333-58.026667-58.026667-105.813333-139.946667-105.813333-184.32 0-10.24 6.826667-17.066667 17.066667-17.066667s17.066667 6.826667 17.066666 17.066667c0 30.72 37.546667 105.813333 95.573334 160.426666 54.613333 54.613333 129.706667 95.573333 160.426666 95.573334 10.24 0 17.066667 6.826667 17.066667 17.066666s-6.826667 17.066667-17.066667 17.066667zM737.28 494.933333c-44.373333-17.066667-88.746667-44.373333-126.293333-81.92-37.546667-37.546667-61.44-75.093333-78.506667-119.466666-3.413333-6.826667-6.826667-10.24-13.653333-10.24s-10.24 0-13.653334 3.413333c-64.853333 61.44-102.4 95.573333-112.64 105.813333-27.306667 27.306667-23.893333 85.333333 64.853334 174.08 51.2 51.2 98.986667 78.506667 136.533333 78.506667 17.066667 0 27.306667-3.413333 37.546667-13.653333 13.653333-13.653333 68.266667-68.266667 112.64-109.226667 3.413333-3.413333 6.826667-10.24 3.413333-17.066667s-3.413333-6.826667-10.24-10.24z" fill="" /><path d="M658.773333 665.6c-3.413333-3.413333-10.24 0-13.653333 0-13.653333 10.24-30.72 13.653333-47.786667 13.653333-34.133333 0-88.746667-17.066667-160.426666-88.746666-78.506667-78.506667-109.226667-157.013333-75.093334-208.213334 3.413333-3.413333 3.413333-10.24 0-13.653333s-6.826667-10.24-10.24-10.24c-27.306667-6.826667-54.613333-13.653333-81.92-13.653333-40.96 0-98.986667 10.24-139.946666 54.613333-34.133333 34.133333-27.306667 88.746667 17.066666 163.84 44.373333 71.68 109.226667 143.36 143.36 177.493333C331.093333 781.653333 477.866667 921.6 576.853333 921.6c23.893333 0 40.96-6.826667 54.613334-20.48 61.44-61.44 61.44-157.013333 40.96-221.866667-6.826667-6.826667-10.24-13.653333-13.653334-13.653333zM259.413333 764.586667c-10.24-10.24-23.893333-23.893333-34.133333-37.546667-3.413333-3.413333-6.826667-6.826667-13.653333-6.826667-3.413333 0-10.24 3.413333-13.653334 6.826667L0 993.28c0 10.24 0 20.48 3.413333 27.306667 3.413333 0 10.24 3.413333 13.653334 3.413333 3.413333 0 6.826667 0 10.24-3.413333l266.24-197.973334c3.413333-3.413333 6.826667-6.826667 6.826666-13.653333 0-3.413333-3.413333-10.24-6.826666-13.653333-10.24-10.24-20.48-20.48-34.133334-30.72z" fill="" /></svg>